<svg xmlns="http://www.w3.org/2000/svg" xmlns:xlink="http://www.w3.org/1999/xlink" version="1.1" style="" xml:space="preserve" width="46" height="53"><rect id="backgroundrect" width="100%" height="100%" x="0" y="0" fill="none" stroke="none"/>


















<g class="currentLayer" style=""><title>Layer 1</title><circle style="" cx="36.090999603271484" cy="7" r="7" id="svg_1" class="" fill-opacity="1" fill="#fbb900" opacity="1" stroke-width="5"/><circle style="" cx="36.090999603271484" cy="7" r="7" class="" id="svg_19" fill="#fbb900" fill-opacity="1" opacity="1" stroke-width="5"/><path style="" d="M32.538,49.475 c-0.017000000000000005,-0.09700000000000003 -0.04600000000000001,-0.19000000000000003 -0.07200000000000001,-0.28400000000000003 c-0.027000000000000007,-0.09500000000000003 -0.05200000000000001,-0.18900000000000003 -0.08800000000000002,-0.281 c-0.03300000000000001,-0.08300000000000002 -0.07300000000000001,-0.15900000000000003 -0.11200000000000002,-0.23800000000000002 c-0.04900000000000001,-0.09900000000000003 -0.09800000000000003,-0.19700000000000004 -0.15800000000000003,-0.29100000000000004 c-0.04100000000000001,-0.06300000000000001 -0.08800000000000002,-0.12000000000000001 -0.133,-0.18000000000000002 c-0.07200000000000001,-0.09600000000000003 -0.14500000000000002,-0.19100000000000003 -0.23,-0.279 c-0.05500000000000001,-0.05700000000000001 -0.11600000000000002,-0.10500000000000001 -0.17600000000000002,-0.15800000000000003 c-0.06800000000000002,-0.06100000000000001 -0.128,-0.128 -0.203,-0.18300000000000002 c0,0 -5.26,-3.688 -8.542,-5.99 c-1.3920000000000001,-0.976 -1.6580000000000001,-2.924 -0.5870000000000001,-4.243 L31.453,26 c2.579,-3.219 2.056,-7.963 -1.163,-10.543 s-7.963,-2.056 -10.543,1.163 l-11.2,13.789 c-2.579,3.219 -2.056,7.963 1.163,10.542 c0.5890000000000001,0.47200000000000003 1.5310000000000001,0.8400000000000001 2.414,1.106 c1.6430000000000002,0.49600000000000005 3.201,1.235 4.586,2.247 l3.309,2.418 c0.12000000000000001,0.08700000000000002 0.05800000000000001,0.277 -0.09000000000000002,0.277 h-9.206 c-1.451,0 -2.789,0.972 -3.072,2.395 C7.272,51.307 8.743,53 10.591,53 h19 c0.07,0 0.135,-0.016000000000000004 0.20400000000000001,-0.021000000000000005 c0.11100000000000002,-0.008000000000000002 0.22200000000000003,-0.014000000000000002 0.33100000000000007,-0.03400000000000001 c0.08400000000000002,-0.015000000000000003 0.16500000000000004,-0.04000000000000001 0.24700000000000003,-0.06300000000000001 c0.11100000000000002,-0.030000000000000006 0.22000000000000003,-0.06000000000000001 0.32700000000000007,-0.10200000000000001 c0.06200000000000001,-0.025000000000000005 0.12000000000000001,-0.05600000000000001 0.18000000000000002,-0.08500000000000002 c0.12200000000000001,-0.05800000000000001 0.24000000000000002,-0.11900000000000002 0.35400000000000004,-0.19300000000000003 c0.036000000000000004,-0.024000000000000004 0.06900000000000002,-0.05100000000000001 0.10400000000000001,-0.07700000000000001 c0.125,-0.08900000000000002 0.24500000000000002,-0.18500000000000003 0.35600000000000004,-0.29400000000000004 c0.023000000000000007,-0.022000000000000006 0.04200000000000001,-0.04800000000000001 0.06300000000000001,-0.07100000000000001 c0.08900000000000002,-0.09300000000000003 0.18200000000000002,-0.18200000000000002 0.26,-0.28900000000000003 c0.020000000000000004,-0.028000000000000004 0.03200000000000001,-0.05900000000000001 0.05100000000000001,-0.08800000000000002 c0.016000000000000004,-0.024000000000000004 0.028000000000000004,-0.05100000000000001 0.04400000000000001,-0.07500000000000001 c0.08900000000000002,-0.14 0.17200000000000001,-0.28300000000000003 0.23500000000000001,-0.43200000000000005 c0.015000000000000003,-0.03400000000000001 0.023000000000000007,-0.07200000000000001 0.036000000000000004,-0.10600000000000001 c0.05500000000000001,-0.14500000000000002 0.10500000000000001,-0.29000000000000004 0.137,-0.44000000000000006 c0.014000000000000002,-0.06400000000000002 0.016000000000000004,-0.132 0.026000000000000006,-0.19700000000000004 c0.018000000000000002,-0.126 0.037000000000000005,-0.252 0.03900000000000001,-0.37900000000000006 c0,-0.019000000000000003 0.006000000000000002,-0.037000000000000005 0.006000000000000002,-0.05600000000000001 c0,-0.07300000000000001 -0.016000000000000004,-0.14100000000000001 -0.021000000000000005,-0.21200000000000002 C32.562,49.683 32.557,49.578 32.538,49.475 z" id="svg_2" class="" fill="#fbb900" fill-opacity="1" opacity="1" stroke-width="5"/><path style="" d="M44.48,20.57 c-1.445,-0.9660000000000001 -3.402,-0.6560000000000001 -4.631,0.5730000000000001 l-4.179,4.179 c-0.08300000000000002,0.08300000000000002 -0.21700000000000003,0.08300000000000002 -0.30000000000000004,0 l-2.447,-2.447 c-0.234,1.111 -0.7150000000000001,2.184 -1.47,3.126 l-2.496,3.073 l3.817,3.816 c0.7510000000000001,0.7510000000000001 1.758,1.085 2.747,1.029 c0.989,0.05600000000000001 1.995,-0.278 2.747,-1.029 l6.777,-6.777 C46.608,24.548000000000002 46.421,21.867 44.48,20.57 z" id="svg_3" class="" fill-opacity="1" fill="#fbb900" opacity="1" stroke-width="5"/><path style="" d="M44.48,19.78259844303131 c-1.445,-0.9660000000000003 -3.402,-0.6560000000000004 -4.631,0.5730000000000003 l-4.179,4.179 c-0.08300000000000005,0.08300000000000005 -0.21700000000000008,0.08300000000000005 -0.30000000000000016,0 l-2.447,-2.447 c-0.234,1.111 -0.7150000000000003,2.184 -1.47,3.126 l-2.496,3.073 l3.817,3.816 c0.7510000000000003,0.7510000000000003 1.758,1.085 2.747,1.029 c0.989,0.05600000000000002 1.995,-0.278 2.747,-1.029 l6.777,-6.777 C46.608,23.760598443031313 46.421,21.079598443031312 44.48,19.78259844303131 z" class="" id="svg_20" fill="#fbb900" fill-opacity="1" opacity="1" stroke-width="5"/><path style="" d="M44.48,19.78259844303131 c-1.445,-0.9660000000000004 -3.402,-0.6560000000000006 -4.631,0.5730000000000004 l-4.179,4.179 c-0.08300000000000007,0.08300000000000007 -0.2170000000000001,0.08300000000000007 -0.3000000000000002,0 l-2.447,-2.447 c-0.234,1.111 -0.7150000000000004,2.184 -1.47,3.126 l-2.496,3.073 l3.817,3.816 c0.7510000000000004,0.7510000000000004 1.758,1.085 2.747,1.029 c0.989,0.05600000000000003 1.995,-0.278 2.747,-1.029 l6.777,-6.777 C46.608,23.760598443031313 46.421,21.079598443031312 44.48,19.78259844303131 z" class="" fill="#fbb900" fill-opacity="1" id="svg_21" opacity="1" stroke-width="5"/><g id="svg_4" class="" fill-opacity="1" fill="#fbb900" opacity="1" stroke-width="5">
</g><g id="svg_5" class="" fill-opacity="1" fill="#fbb900" opacity="1" stroke-width="5">
</g><g id="svg_6" class="" fill-opacity="1" fill="#fbb900" opacity="1" stroke-width="5">
</g><g id="svg_7" class="" fill-opacity="1" fill="#fbb900" opacity="1" stroke-width="5">
</g><g id="svg_8" class="" fill-opacity="1" fill="#fbb900" opacity="1" stroke-width="5">
</g><g id="svg_9" class="" fill-opacity="1" fill="#fbb900" opacity="1" stroke-width="5">
</g><g id="svg_10" class="" fill-opacity="1" fill="#fbb900" opacity="1" stroke-width="5">
</g><g id="svg_11" class="" fill-opacity="1" fill="#fbb900" opacity="1" stroke-width="5">
</g><g id="svg_12" class="" fill-opacity="1" fill="#fbb900" opacity="1" stroke-width="5">
</g><g id="svg_13" class="" fill-opacity="1" fill="#fbb900" opacity="1" stroke-width="5">
</g><g id="svg_14" class="" fill-opacity="1" fill="#fbb900" opacity="1" stroke-width="5">
</g><g id="svg_15" class="" fill-opacity="1" fill="#fbb900" opacity="1" stroke-width="5">
</g><g id="svg_16" class="" fill-opacity="1" fill="#fbb900" opacity="1" stroke-width="5">
</g><g id="svg_17" class="" fill-opacity="1" fill="#fbb900" opacity="1" stroke-width="5">
</g><g id="svg_18" class="" fill-opacity="1" fill="#fbb900" opacity="1" stroke-width="5">
</g></g></svg>